<svg xmlns="http://www.w3.org/2000/svg" viewBox="0 0 414.63 189.31"><defs><style>.cls-1{fill:#cb3398;}.cls-2{fill:#b00830;}.cls-3{fill:#c43b6d;}.cls-4,.cls-5{fill:#ff0;}.cls-4{stroke:#000;stroke-miterlimit:10;}</style></defs><title>Capa 2 (3)logaso</title><g id="Capa_2" data-name="Capa 2"><g id="Capa_2-2" data-name="Capa 2"><path class="cls-1" d="M6.09,98.36V97.22c2.5-4.18,7.51-6.43,13.8-8.12,55.42-14.9,112.7-26.29,170-37.62q54-10.66,108.72-19.42C314.09,29.58,330,29.6,345.54,28c4.13,0,8.26.07,12.38,0,3.49-.08,1,1.58,1.77,2.29-1.44,2.82-1,5.8-1.76,8.69-1.2,13-4.77,25.81-9.05,38.51-6.95,20.65-13.49,41.36-22.57,61.69-5.19,11.61-9.26,13.72-27.69,13.9-18,.17-34.89-3.34-51.75-6.46-65-12-129.43-25.2-194.24-37.6-14.93-2.86-29.52-6.3-44.28-9.43A22.94,22.94,0,0,1,6.09,98.36Z"/><path class="cls-2" d="M359.69,48.42c-3.57,8.58-2.39,17.43-3.38,26.14-3,26.57-4.36,53.27-13.76,79.33-5.73,15.88-4.72,14.16-27.41,10.9-56.46-8.1-111.65-19.19-166.67-30.59-40.47-8.38-80.94-16.8-119.9-27.86-7.45-2.11-15.3-3.93-21-8,22,2.75,43,7.66,64.43,11.68,65.74,12.32,130.68,26.41,197,37.6a195.75,195.75,0,0,0,33.92,3.16c9.58,0,15.15-2.36,17.91-8.49,10.8-24,18.57-48.37,26.45-72.77,3.34-10.34,6.13-20.75,9.17-31.13,3.5-.9,1.65,1.74,3.3,2.06Z"/><path class="cls-3" d="M359.69,40.47l-3.3-2.06c1-2.74.84-5.66,3.3-8.15Z"/><path class="cls-4" d="M83.5,34.76Q88.17,50,71.89,66.88,61.06,78.25,44.14,87.59l-.37,19.67-17.51,5.37L27.6,54.54,45,49.22l-.68,27.24A53.69,53.69,0,0,0,58.63,64.37q8-9.81,5.61-18.87-1.53-5.82-5.92-6.45c-1.75-.25-4.63.24-8.62,1.47l-49,15L4.19,40.3l49.4-15.14Q64.44,21.83,71,23,80.37,24.54,83.5,34.76Z"/><path class="cls-4" d="M152,65.09q.22,8.93-9.23,11.83l-18.17,5.57q-7.77,2.39-9.41-3-3.27,8-10.9,10.31A12.57,12.57,0,0,1,94,88.93a14.13,14.13,0,0,1-6.46-8.58Q84.28,69.61,90,61q5.22-7.78,15.48-10.94l27.39-8.39-.83,29.48Zm-36.6-9-10.6,3.25.31,13a8.7,8.7,0,0,0,.35,2.14q1.36,4.47,9.52,2Z"/><path class="cls-4" d="M189,53.74a10.55,10.55,0,0,1-3.47,8.37,14.7,14.7,0,0,1-6,3.53L161.07,71.3q-7.09,2.17-8.68-3a10.66,10.66,0,0,1-.41-3.19l1.32-59.2,17-5.21-1.41,59.24Z"/><path class="cls-4" d="M221.19,111.49q.08,9-9.18,11.81L183.52,132l-.82,29.49-17.17,5.26.82-29.48-14.72,4.51Q137,180.47,114,187.54a23.27,23.27,0,0,1-12.14.79A11.38,11.38,0,0,1,93,180.15q-1.71-5.61,1-12.27,4.32-10.73,17.16-19.15a91.88,91.88,0,0,1,23.39-10.66l9.3-2.85L161.39,89l23.12-7.08L183.59,123Zm-81.36,33.94q-18,5.5-23.52,13.28-4.59,6.47-3,11.65,1.35,4.42,5.67,3.1,6-1.83,12.66-11.75A58.68,58.68,0,0,0,139.83,145.43Zm27.82-49.06-12.16,35.26,10.69-3.28Z"/><path class="cls-4" d="M268.81,96.89q1,8.69-9.85,12l-31.89,9.78q5.75,3,8.74,14.13Q239.3,146,230,160q-8.4,12.63-18.81,15.49a5.17,5.17,0,0,1-4-.57,5.53,5.53,0,0,1-2.7-3.33,5.64,5.64,0,0,1-.22-1.91l.87-40.46a8.57,8.57,0,0,1-5-1.51,8.15,8.15,0,0,1-3.51-4.6,10.3,10.3,0,0,1-.37-3.93l9-2.77L206,86.59l17.26-5.29-2.31,30.28Zm-44.72,48.2a24.29,24.29,0,0,0-.87-7.3c-.86-2.8-2.36-4.65-4.48-5.54q-.92,11.07-3.2,33.37a31.28,31.28,0,0,0,5.88-9.9A29.69,29.69,0,0,0,224.09,145.09Z"/><path class="cls-4" d="M297.67,117.27q.27,8.91-9.47,11.9l-24.45,7.5q-7.11,2.18-8.74-3.17a9.58,9.58,0,0,1-.36-3l.42-20.36-7.86,2.41.5-9.15q7.68-4.89,10.66-9.73,3.36-5.47,5.32-17.71L273,73.05l-.44,22.68L285,91.93q-.45,9.13-9.56,11.93l-3.17,1-.32,20.34Z"/><path class="cls-4" d="M358,98.79a10.59,10.59,0,0,1-2.7,7.63,14.17,14.17,0,0,1-6.72,4.25l-26.72,8.19Q298.51,126,293.9,111a18.24,18.24,0,0,1,3.31-17.6,29.33,29.33,0,0,1,14.86-9.72L319,81.49a27.81,27.81,0,0,1,11.31-1.27q7,.8,8.92,6.15T337.11,97l-15.87,4.87L323,89.26l-10.12,3.1L312.78,106A6.7,6.7,0,0,0,313,108q1.27,4.15,7.51,2.25Z"/><path class="cls-4" d="M413.83,81.66q1.1,3.6-1.84,7.19a12.65,12.65,0,0,1-6.14,4.25l-18.37,5.63q-7.29,2.23-9.28-4.24a12,12,0,0,1-.46-3.73L378,72.4l-10.22,3.13L367,91.91c-.13,2.77-1.68,4.62-4.65,5.53L357.29,99l.61-20.43a8.65,8.65,0,0,1-5.81-1.73,9.82,9.82,0,0,1-3.6-5.17A10.7,10.7,0,0,1,350.82,61a19.68,19.68,0,0,1,9.34-5.79l7.77-2.38-.18,13.78,26.52-8.14-.54,29.4Z"/><path class="cls-5" d="M245.85,106a6.15,6.15,0,0,1,1-1,11.29,11.29,0,0,1,2-1c1.12-.64,1.05-1.26,2-2a5.42,5.42,0,0,1,3-1c5-.57,12.8-7.11,16-5,2.41,1.58,2.25,8-1,12-3.47,4.21-9.94,4.88-13,3a4.94,4.94,0,0,0-2-1c-2-.38-4.29,1-6,2-1.34.81-1.58,1.13-2,1C244.44,112.5,244.36,107.89,245.85,106Z"/><path class="cls-5" d="M206.35,115.47l5.28-3.36a1.08,1.08,0,0,1,.49-.18l7.16-.89a1.19,1.19,0,0,1,1,.33l1.34,1.34a1.2,1.2,0,0,1,.32.61l.89,4.46a1.2,1.2,0,0,1,0,.38l-.86,6.89a1.19,1.19,0,0,1-1,1l-15,1.88H201a1.21,1.21,0,0,1-.37-.07L198,127a1.15,1.15,0,0,0-.37-.06h-1.45a1.22,1.22,0,0,1-.66-.2l-1.76-1.18a1.18,1.18,0,0,1-.36-1.59l2.08-3.46a1.17,1.17,0,0,1,1-.57h1.25l.17,0,6.83-1h4.08l-2.19-.74a1.18,1.18,0,0,1-.81-1.11V116Z"/></g></g></svg>